<?xml version="1.0" encoding="UTF-8"?>
<svg id="Layer_2" data-name="Layer 2" xmlns="http://www.w3.org/2000/svg" viewBox="0 0 1776.62 376.25">
  <defs>
    <style>
      .cls-1 {
        fill: #142038;
      }

      .cls-2 {
        fill: #f4e67b;
      }
    </style>
  </defs>
  <g id="Layer_1-2" data-name="Layer 1">
    <g>
      <g>
        <path class="cls-1" d="m407.38,89.57h36.54c23.55,0,41.05,2.92,52.49,8.76,11.45,5.84,20.87,15.33,28.28,28.47,7.41,13.15,11.12,28.49,11.12,46.04,0,12.48-2.07,23.96-6.22,34.42-4.15,10.46-9.87,19.15-17.17,26.05-7.3,6.9-15.21,11.68-23.72,14.32-8.51,2.64-23.26,3.96-44.24,3.96h-37.09V89.57Zm30.62,29.74v102.22h14.32c14.1,0,24.32-1.62,30.68-4.85,6.35-3.23,11.55-8.67,15.59-16.32,4.04-7.65,6.06-17.05,6.06-28.23,0-17.2-4.81-30.54-14.43-40.03-8.67-8.53-22.58-12.79-41.75-12.79h-10.46Z"/>
        <path class="cls-1" d="m550.53,131.75h30.4v57.72c0,11.24.77,19.04,2.32,23.41s4.03,7.76,7.45,10.19c3.42,2.42,7.64,3.63,12.64,3.63s9.25-1.19,12.75-3.58c3.5-2.38,6.09-5.89,7.78-10.52,1.25-3.45,1.88-10.83,1.88-22.14v-58.71h30.07v50.78c0,20.93-1.65,35.25-4.96,42.96-4.04,9.4-9.99,16.62-17.84,21.64-7.86,5.03-17.84,7.54-29.96,7.54-13.15,0-23.77-2.94-31.89-8.81-8.11-5.87-13.82-14.06-17.13-24.56-2.35-7.27-3.53-20.49-3.53-39.65v-49.9Z"/>
        <path class="cls-1" d="m673.85,131.75h30.07v123.81c0,11.38-1.12,19.88-3.36,25.5-2.24,5.62-5.78,9.93-10.63,12.94-4.85,3.01-10.68,4.52-17.51,4.52-6.02,0-13.51-1.51-22.47-4.52v-23.68c4.7,2.28,8.85,3.42,12.45,3.42,3.82,0,6.68-1.14,8.59-3.42,1.91-2.28,2.86-6.46,2.86-12.56v-126.01Zm14.98-49.35c5.36,0,9.93,1.9,13.71,5.71,3.78,3.81,5.67,8.42,5.67,13.84s-1.87,9.92-5.62,13.73c-3.75,3.81-8.22,5.71-13.44,5.71s-9.93-1.94-13.71-5.82c-3.78-3.88-5.67-8.57-5.67-14.06s1.86-9.77,5.56-13.51c3.71-3.73,8.21-5.6,13.49-5.6Z"/>
        <path class="cls-1" d="m778.34,128.67c11.31,0,21.94,2.83,31.89,8.48,9.95,5.66,17.72,13.33,23.3,23.02,5.58,9.69,8.37,20.16,8.37,31.39s-2.81,21.88-8.43,31.72c-5.62,9.84-13.27,17.53-22.97,23.08-9.69,5.54-20.38,8.32-32.05,8.32-17.18,0-31.85-6.11-44-18.34-12.16-12.23-18.23-27.08-18.23-44.55,0-18.73,6.87-34.33,20.6-46.81,12.04-10.87,25.89-16.3,41.53-16.3Zm.5,28.31c-9.34,0-17.12,3.25-23.34,9.75-6.22,6.5-9.32,14.81-9.32,24.95s3.07,18.87,9.21,25.34c6.14,6.46,13.92,9.69,23.34,9.69s17.25-3.27,23.5-9.8c6.25-6.53,9.38-14.94,9.38-25.22s-3.07-18.63-9.21-25.06c-6.14-6.43-13.99-9.64-23.56-9.64Z"/>
        <path class="cls-1" d="m858.81,87.59h30.07v44.17h17.85v25.88h-17.85v93.96h-30.07v-93.96h-15.42v-25.88h15.42v-44.17Z"/>
        <path class="cls-1" d="m999.98,131.75h30.07v119.84h-30.07v-12.67c-5.87,5.58-11.75,9.6-17.66,12.06-5.9,2.46-12.3,3.69-19.2,3.69-15.48,0-28.86-6-40.16-18.01-11.3-12.01-16.94-26.93-16.94-44.78s5.46-33.67,16.39-45.49c10.93-11.82,24.2-17.73,39.83-17.73,7.19,0,13.93,1.36,20.24,4.08,6.31,2.72,12.14,6.79,17.49,12.23v-13.22Zm-31.61,24.67c-9.3,0-17.02,3.29-23.16,9.86-6.15,6.57-9.22,15-9.22,25.28s3.13,18.87,9.38,25.55c6.26,6.68,13.96,10.02,23.11,10.02s17.27-3.29,23.49-9.86c6.22-6.57,9.33-15.18,9.33-25.83s-3.11-18.87-9.33-25.34c-6.22-6.46-14.09-9.69-23.6-9.69Z"/>
        <path class="cls-1" d="m1189.35,111.6l-22.84,20.16c-8.02-11.16-16.18-16.74-24.5-16.74-4.05,0-7.35,1.08-9.93,3.25-2.57,2.17-3.86,4.61-3.86,7.32s.92,5.29,2.76,7.71c2.5,3.23,10.04,10.17,22.62,20.82,11.77,9.84,18.9,16.05,21.41,18.62,6.25,6.32,10.68,12.36,13.29,18.12,2.61,5.77,3.92,12.06,3.92,18.89,0,13.29-4.6,24.27-13.78,32.93-9.19,8.67-21.17,13-35.95,13-11.54,0-21.6-2.83-30.16-8.48-8.56-5.65-15.9-14.54-22-26.66l25.93-15.64c7.8,14.32,16.77,21.48,26.92,21.48,5.29,0,9.75-1.54,13.35-4.63,3.6-3.08,5.41-6.65,5.41-10.68,0-3.67-1.36-7.34-4.08-11.01-2.72-3.67-8.72-9.29-17.98-16.85-17.65-14.39-29.06-25.5-34.21-33.32-5.15-7.82-7.72-15.62-7.72-23.41,0-11.24,4.28-20.87,12.85-28.91,8.56-8.04,19.13-12.06,31.71-12.06,8.09,0,15.79,1.87,23.1,5.62,7.32,3.75,15.24,10.58,23.77,20.49Z"/>
        <path class="cls-1" d="m1210.67,87.59h30.07v44.17h17.85v25.88h-17.85v93.96h-30.07v-93.96h-15.42v-25.88h15.42v-44.17Z"/>
        <path class="cls-1" d="m1263.28,131.75h30.4v57.72c0,11.24.77,19.04,2.32,23.41,1.54,4.37,4.03,7.76,7.45,10.19,3.42,2.42,7.64,3.63,12.64,3.63s9.25-1.19,12.75-3.58c3.5-2.38,6.09-5.89,7.78-10.52,1.25-3.45,1.88-10.83,1.88-22.14v-58.71h30.07v50.78c0,20.93-1.65,35.25-4.96,42.96-4.04,9.4-9.99,16.62-17.84,21.64-7.86,5.03-17.84,7.54-29.96,7.54-13.15,0-23.77-2.94-31.89-8.81-8.11-5.87-13.82-14.06-17.13-24.56-2.35-7.27-3.53-20.49-3.53-39.65v-49.9Z"/>
        <path class="cls-1" d="m1475.93,85.49h30.07v166.1h-30.07v-12.67c-5.87,5.58-11.75,9.6-17.66,12.06-5.9,2.46-12.3,3.69-19.2,3.69-15.48,0-28.86-6-40.16-18.01-11.3-12.01-16.94-26.93-16.94-44.78s5.46-33.67,16.39-45.49c10.93-11.82,24.2-17.73,39.83-17.73,7.19,0,13.93,1.36,20.24,4.08,6.31,2.72,12.14,6.79,17.49,12.23v-59.48Zm-31.61,70.94c-9.3,0-17.02,3.29-23.16,9.86-6.15,6.57-9.22,15-9.22,25.28s3.13,18.87,9.38,25.55c6.26,6.68,13.96,10.02,23.11,10.02s17.27-3.29,23.49-9.86c6.22-6.57,9.33-15.18,9.33-25.83s-3.11-18.87-9.33-25.34c-6.22-6.46-14.09-9.69-23.6-9.69Z"/>
        <path class="cls-1" d="m1536.85,82.41c5.27,0,9.79,1.91,13.57,5.73,3.77,3.82,5.66,8.44,5.66,13.88s-1.87,9.93-5.6,13.71c-3.74,3.78-8.2,5.67-13.4,5.67s-9.91-1.93-13.68-5.78c-3.77-3.86-5.65-8.54-5.65-14.04s1.87-9.8,5.6-13.55c3.74-3.74,8.24-5.62,13.51-5.62Zm-15.04,49.35h30.07v119.84h-30.07v-119.84Z"/>
        <path class="cls-1" d="m1624.21,128.67c11.31,0,21.94,2.83,31.89,8.48,9.95,5.66,17.72,13.33,23.3,23.02,5.58,9.69,8.37,20.16,8.37,31.39s-2.81,21.88-8.43,31.72c-5.62,9.84-13.27,17.53-22.97,23.08-9.69,5.54-20.38,8.32-32.05,8.32-17.18,0-31.85-6.11-44-18.34-12.16-12.23-18.23-27.08-18.23-44.55,0-18.73,6.87-34.33,20.6-46.81,12.04-10.87,25.89-16.3,41.53-16.3Zm.5,28.31c-9.34,0-17.12,3.25-23.34,9.75-6.22,6.5-9.32,14.81-9.32,24.95s3.07,18.87,9.21,25.34c6.14,6.46,13.92,9.69,23.34,9.69s17.25-3.27,23.5-9.8c6.25-6.53,9.38-14.94,9.38-25.22s-3.07-18.63-9.21-25.06c-6.14-6.43-13.99-9.64-23.56-9.64Z"/>
        <path class="cls-1" d="m1774.41,148.5l-18.62,18.62c-7.56-7.49-14.43-11.24-20.6-11.24-3.38,0-6.02.71-7.93,2.15-1.91,1.43-2.86,3.21-2.86,5.34,0,1.62.61,3.1,1.82,4.46,1.21,1.36,4.2,3.21,8.98,5.56l11.01,5.51c11.6,5.73,19.57,11.57,23.9,17.51,4.33,5.95,6.5,12.92,6.5,20.93,0,10.65-3.91,19.54-11.73,26.66-7.82,7.12-18.3,10.68-31.45,10.68-17.48,0-31.43-6.83-41.86-20.49l18.5-20.16c3.53,4.11,7.66,7.43,12.39,9.97,4.74,2.53,8.94,3.8,12.61,3.8,3.96,0,7.16-.95,9.58-2.86,2.42-1.91,3.63-4.11,3.63-6.61,0-4.63-4.37-9.14-13.11-13.55l-10.13-5.07c-19.39-9.77-29.08-21.99-29.08-36.68,0-9.47,3.65-17.57,10.96-24.29,7.31-6.72,16.65-10.08,28.03-10.08,7.78,0,15.11,1.71,21.97,5.12,6.87,3.42,12.68,8.32,17.46,14.71Z"/>
      </g>
      <circle class="cls-1" cx="170.4" cy="170.4" r="170.4"/>
      <g>
        <path class="cls-2" d="m207.13,120.1l14.6,14.6-77.26,77.26-14.6-14.6,77.26-77.26Z"/>
        <path class="cls-2" d="m199.61,193.81l.48-20.09c14.4.39,25.95-3.78,34.71-12.54,7.38-7.38,11.07-16.12,11.09-26.22.02-10.1-3.69-18.84-11.1-26.25-5.14-5.14-10.84-8.61-17.07-10.35-6.22-1.76-12.54-1.73-18.9.09-6.38,1.8-12.06,5.23-17.06,10.23-4.27,4.27-7.38,8.96-9.31,14.09-1.96,5.12-2.93,11.91-2.96,20.35l-20.36-.42c.14-11.28,1.66-20.55,4.58-27.78,2.91-7.22,7.65-14.09,14.16-20.6,12.01-12.01,25.64-18.05,40.91-18.07,15.26-.05,28.85,5.89,40.76,17.8,7.71,7.71,12.8,16.28,15.3,25.76,2.5,9.47,2.33,19.29-.52,29.41-2.87,10.14-8.04,18.95-15.53,26.44-6.37,6.37-13.85,11.16-22.44,14.38-8.6,3.22-17.51,4.47-26.74,3.78Z"/>
        <path class="cls-2" d="m179.03,237l-42.18,42.18-14.39-14.39,27.57-27.57-17.18-17.18-27.57,27.57-14.13-14.13,27.57-27.57-17.12-17.12-27.57,27.57-14.44-14.44,42.18-42.18,77.26,77.26Z"/>
      </g>
      <g>
        <g>
          <path class="cls-1" d="m610.92,346.69h5.45v28.84h-5.45v-28.84Z"/>
          <path class="cls-1" d="m640.23,346.69h5.27l12.34,18.98v-18.98h5.49v28.84h-5.28l-12.33-18.92v18.92h-5.49v-28.84Z"/>
          <path class="cls-1" d="m687.61,346.69h5.27l12.34,18.98v-18.98h5.49v28.84h-5.28l-12.33-18.92v18.92h-5.49v-28.84Z"/>
          <path class="cls-1" d="m748.58,345.96c4.08,0,7.59,1.48,10.53,4.43,2.94,2.95,4.4,6.56,4.4,10.81s-1.45,7.77-4.35,10.69c-2.9,2.91-6.41,4.37-10.55,4.37s-7.93-1.5-10.79-4.49c-2.86-2.99-4.3-6.55-4.3-10.67,0-2.76.67-5.29,2-7.61,1.33-2.31,3.17-4.15,5.5-5.5,2.33-1.35,4.85-2.03,7.54-2.03Zm-.06,5.37c-2.67,0-4.92.93-6.73,2.78-1.82,1.86-2.73,4.22-2.73,7.08,0,3.19,1.14,5.71,3.44,7.57,1.78,1.45,3.82,2.18,6.12,2.18,2.6,0,4.82-.94,6.65-2.82,1.83-1.88,2.75-4.2,2.75-6.96s-.92-5.07-2.77-6.97c-1.85-1.9-4.09-2.85-6.73-2.85Z"/>
          <path class="cls-1" d="m784.17,346.69h5.65l7.26,20.49,7.36-20.49h5.64l-10.39,28.84h-5.29l-10.22-28.84Z"/>
          <path class="cls-1" d="m840.94,346.69h5.57l11.09,28.84h-5.71l-2.26-5.94h-11.77l-2.35,5.94h-5.71l11.12-28.84Zm2.82,7.65l-3.87,9.9h7.72l-3.85-9.9Z"/>
          <path class="cls-1" d="m876.68,346.69h15.94v5.41h-5.26v23.43h-5.57v-23.43h-5.12v-5.41Z"/>
          <path class="cls-1" d="m914.07,346.69h15.74v5.37h-10.29v5.22h10.29v5.27h-10.29v7.59h10.29v5.39h-15.74v-28.84Z"/>
          <path class="cls-1" d="m1036.92,351.75l-3.84,3.66c-2.61-2.76-5.55-4.14-8.82-4.14-2.76,0-5.08.94-6.96,2.83-1.89,1.88-2.83,4.21-2.83,6.97,0,1.92.42,3.63,1.25,5.12.84,1.49,2.02,2.66,3.55,3.51,1.53.85,3.23,1.28,5.09,1.28,1.59,0,3.05-.3,4.37-.89,1.32-.59,2.77-1.68,4.35-3.25l3.72,3.88c-2.13,2.08-4.14,3.52-6.04,4.33-1.9.8-4.06,1.2-6.49,1.2-4.48,0-8.15-1.42-11.01-4.26-2.86-2.84-4.28-6.49-4.28-10.93,0-2.87.65-5.43,1.95-7.67,1.3-2.24,3.16-4.03,5.59-5.39,2.43-1.36,5.04-2.04,7.83-2.04,2.38,0,4.67.5,6.87,1.51,2.2,1.01,4.1,2.44,5.69,4.29Z"/>
          <path class="cls-1" d="m1059.77,346.69h5.82c3.19,0,5.45.28,6.81.85,1.35.57,2.44,1.51,3.26,2.83.82,1.32,1.23,2.88,1.23,4.69,0,1.9-.46,3.48-1.36,4.76-.91,1.27-2.28,2.24-4.11,2.89l6.83,12.82h-6l-6.49-12.22h-.5v12.22h-5.49v-28.84Zm5.49,11.27h1.72c1.75,0,2.95-.23,3.61-.69.66-.46.99-1.22.99-2.28,0-.63-.16-1.18-.49-1.64-.33-.47-.76-.8-1.31-1-.55-.2-1.55-.3-3.01-.3h-1.51v5.92Z"/>
          <path class="cls-1" d="m1100.38,346.69h15.74v5.37h-10.29v5.22h10.29v5.27h-10.29v7.59h10.29v5.39h-15.74v-28.84Z"/>
          <path class="cls-1" d="m1147.71,346.69h5.57l11.09,28.84h-5.71l-2.26-5.94h-11.77l-2.35,5.94h-5.71l11.12-28.84Zm2.82,7.65l-3.87,9.9h7.72l-3.85-9.9Z"/>
          <path class="cls-1" d="m1183.44,346.69h15.94v5.41h-5.26v23.43h-5.57v-23.43h-5.12v-5.41Z"/>
          <path class="cls-1" d="m1220.84,346.69h15.74v5.37h-10.29v5.22h10.29v5.27h-10.29v7.59h10.29v5.39h-15.74v-28.84Z"/>
          <path class="cls-1" d="m1317.2,346.69h15.74v5.37h-10.29v5.22h10.29v5.27h-10.29v7.59h10.29v5.39h-15.74v-28.84Z"/>
          <path class="cls-1" d="m1355.73,346.69h5.49v23.61h8v5.24h-13.49v-28.84Z"/>
          <path class="cls-1" d="m1391.09,346.69h15.74v5.37h-10.29v5.22h10.29v5.27h-10.29v7.59h10.29v5.39h-15.74v-28.84Z"/>
          <path class="cls-1" d="m1427.43,346.69h5.65l7.26,20.49,7.36-20.49h5.64l-10.39,28.84h-5.29l-10.22-28.84Z"/>
          <path class="cls-1" d="m1484.2,346.69h5.57l11.09,28.84h-5.71l-2.26-5.94h-11.77l-2.35,5.94h-5.71l11.12-28.84Zm2.82,7.65l-3.87,9.9h7.72l-3.85-9.9Z"/>
          <path class="cls-1" d="m1519.94,346.69h15.94v5.41h-5.26v23.43h-5.57v-23.43h-5.12v-5.41Z"/>
          <path class="cls-1" d="m1557.33,346.69h15.74v5.37h-10.29v5.22h10.29v5.27h-10.29v7.59h10.29v5.39h-15.74v-28.84Z"/>
        </g>
        <circle class="cls-1" cx="968.59" cy="361.37" r="3.74"/>
        <circle class="cls-1" cx="1276.51" cy="361.37" r="3.74"/>
      </g>
    </g>
  </g>
</svg>