<?xml version="1.0" encoding="UTF-8"?>
<svg id="Layer_2" data-name="Layer 2" xmlns="http://www.w3.org/2000/svg" viewBox="0 0 1797.47 344.81">
  <defs>
    <style>
      .cls-1 {
        fill: #142038;
      }

      .cls-2 {
        fill: #f4e67b;
      }
    </style>
  </defs>
  <g id="Layer_1-2" data-name="Layer 1">
    <g>
      <g>
        <path class="cls-1" d="m412.16,90.62h36.97c23.83,0,41.53,2.95,53.11,8.86,11.58,5.91,21.12,15.51,28.62,28.81,7.5,13.3,11.25,28.83,11.25,46.58,0,12.63-2.1,24.24-6.29,34.82-4.19,10.59-9.98,19.37-17.37,26.36-7.39,6.98-15.38,11.81-23.99,14.49-8.61,2.67-23.53,4.01-44.76,4.01h-37.52V90.62Zm30.98,30.09v103.42h14.49c14.26,0,24.61-1.63,31.04-4.91,6.43-3.27,11.68-8.78,15.77-16.51,4.08-7.74,6.13-17.26,6.13-28.56,0-17.4-4.87-30.9-14.6-40.5-8.77-8.63-22.84-12.94-42.24-12.94h-10.59Z"/>
        <path class="cls-1" d="m556.99,133.3h30.76v58.39c0,11.37.78,19.26,2.35,23.68,1.56,4.42,4.08,7.86,7.54,10.31,3.46,2.45,7.73,3.68,12.79,3.68s9.36-1.21,12.9-3.62c3.54-2.41,6.16-5.96,7.88-10.64,1.27-3.49,1.9-10.96,1.9-22.4v-59.4h30.42v51.37c0,21.17-1.67,35.66-5.01,43.46-4.09,9.51-10.1,16.81-18.05,21.9-7.95,5.09-18.05,7.63-30.31,7.63-13.3,0-24.05-2.97-32.26-8.92-8.21-5.94-13.99-14.23-17.33-24.85-2.38-7.35-3.57-20.73-3.57-40.12v-50.48Z"/>
        <path class="cls-1" d="m681.76,133.3h30.42v125.26c0,11.52-1.13,20.12-3.4,25.8-2.27,5.68-5.85,10.05-10.75,13.09-4.9,3.04-10.81,4.57-17.72,4.57-6.09,0-13.67-1.52-22.73-4.57v-23.96c4.76,2.3,8.95,3.46,12.59,3.46,3.86,0,6.76-1.15,8.69-3.46,1.93-2.3,2.9-6.54,2.9-12.7v-127.49Zm15.16-49.93c5.42,0,10.05,1.93,13.87,5.78,3.83,3.85,5.74,8.52,5.74,14s-1.89,10.04-5.68,13.89c-3.79,3.85-8.32,5.78-13.6,5.78s-10.05-1.96-13.87-5.89c-3.83-3.93-5.74-8.67-5.74-14.22s1.88-9.89,5.63-13.67c3.75-3.78,8.3-5.67,13.65-5.67Z"/>
        <path class="cls-1" d="m787.47,130.18c11.44,0,22.19,2.86,32.26,8.58,10.07,5.72,17.92,13.49,23.57,23.29,5.65,9.81,8.47,20.39,8.47,31.76s-2.84,22.14-8.53,32.1c-5.68,9.96-13.43,17.74-23.24,23.35-9.81,5.61-20.62,8.41-32.43,8.41-17.38,0-32.23-6.18-44.52-18.56-12.3-12.37-18.44-27.4-18.44-45.08,0-18.95,6.95-34.73,20.84-47.36,12.19-10.99,26.19-16.49,42.01-16.49Zm.5,28.64c-9.45,0-17.32,3.29-23.61,9.86-6.29,6.58-9.43,14.99-9.43,25.24s3.11,19.09,9.32,25.63c6.21,6.54,14.08,9.81,23.61,9.81s17.45-3.3,23.78-9.92c6.32-6.61,9.49-15.12,9.49-25.52s-3.11-18.85-9.32-25.35c-6.22-6.5-14.16-9.75-23.83-9.75Z"/>
        <path class="cls-1" d="m868.89,88.61h30.42v44.69h18.06v26.19h-18.06v95.06h-30.42v-95.06h-15.6v-26.19h15.6v-44.69Z"/>
        <path class="cls-1" d="m1011.71,133.3h30.42v121.25h-30.42v-12.82c-5.94,5.65-11.89,9.71-17.87,12.2-5.97,2.49-12.45,3.73-19.42,3.73-15.66,0-29.2-6.07-40.63-18.22-11.43-12.15-17.14-27.25-17.14-45.3s5.53-34.06,16.59-46.03c11.06-11.96,24.49-17.94,40.29-17.94,7.27,0,14.1,1.38,20.48,4.12,6.38,2.75,12.28,6.87,17.7,12.37v-13.37Zm-31.98,24.96c-9.41,0-17.22,3.33-23.44,9.97-6.22,6.65-9.33,15.17-9.33,25.58s3.16,19.09,9.49,25.85c6.33,6.76,14.12,10.14,23.38,10.14s17.48-3.33,23.77-9.97c6.29-6.65,9.44-15.36,9.44-26.13s-3.15-19.09-9.44-25.63c-6.29-6.54-14.25-9.81-23.88-9.81Z"/>
        <path class="cls-1" d="m1203.31,112.91l-23.11,20.39c-8.11-11.29-16.37-16.94-24.79-16.94-4.09,0-7.44,1.1-10.05,3.29-2.6,2.19-3.91,4.66-3.91,7.41s.93,5.35,2.79,7.8c2.53,3.27,10.16,10.29,22.88,21.06,11.91,9.96,19.13,16.23,21.66,18.83,6.32,6.39,10.81,12.5,13.45,18.33,2.64,5.83,3.96,12.2,3.96,19.11,0,13.45-4.65,24.56-13.95,33.32-9.3,8.77-21.42,13.15-36.37,13.15-11.68,0-21.85-2.86-30.51-8.58-8.66-5.72-16.08-14.71-22.26-26.97l26.23-15.82c7.89,14.49,16.96,21.73,27.23,21.73,5.36,0,9.86-1.56,13.51-4.68,3.65-3.12,5.47-6.72,5.47-10.81,0-3.71-1.38-7.43-4.13-11.14-2.75-3.71-8.82-9.4-18.2-17.05-17.86-14.56-29.4-25.8-34.61-33.71-5.21-7.91-7.81-15.81-7.81-23.68,0-11.37,4.33-21.12,13-29.25,8.66-8.13,19.36-12.2,32.08-12.2,8.18,0,15.97,1.89,23.37,5.68,7.4,3.79,15.42,10.7,24.05,20.73Z"/>
        <path class="cls-1" d="m1224.88,88.61h30.42v44.69h18.06v26.19h-18.06v95.06h-30.42v-95.06h-15.6v-26.19h15.6v-44.69Z"/>
        <path class="cls-1" d="m1278.11,133.3h30.76v58.39c0,11.37.78,19.26,2.35,23.68,1.56,4.42,4.08,7.86,7.54,10.31,3.46,2.45,7.73,3.68,12.79,3.68s9.36-1.21,12.9-3.62c3.54-2.41,6.16-5.96,7.88-10.64,1.27-3.49,1.9-10.96,1.9-22.4v-59.4h30.42v51.37c0,21.17-1.67,35.66-5.01,43.46-4.09,9.51-10.1,16.81-18.05,21.9-7.95,5.09-18.05,7.63-30.31,7.63-13.3,0-24.05-2.97-32.26-8.92-8.21-5.94-13.99-14.23-17.33-24.85-2.38-7.35-3.57-20.73-3.57-40.12v-50.48Z"/>
        <path class="cls-1" d="m1493.25,86.5h30.42v168.05h-30.42v-12.82c-5.94,5.65-11.89,9.71-17.87,12.2-5.97,2.49-12.45,3.73-19.42,3.73-15.66,0-29.2-6.07-40.63-18.22-11.43-12.15-17.14-27.25-17.14-45.3s5.53-34.06,16.59-46.03c11.06-11.96,24.49-17.94,40.29-17.94,7.27,0,14.1,1.38,20.48,4.12,6.38,2.75,12.28,6.87,17.7,12.37v-60.18Zm-31.98,71.77c-9.41,0-17.22,3.33-23.44,9.97-6.22,6.65-9.33,15.17-9.33,25.58s3.16,19.09,9.49,25.85c6.33,6.76,14.12,10.14,23.38,10.14s17.48-3.33,23.77-9.97c6.29-6.65,9.44-15.36,9.44-26.13s-3.15-19.09-9.44-25.63c-6.29-6.54-14.25-9.81-23.88-9.81Z"/>
        <path class="cls-1" d="m1554.89,83.38c5.33,0,9.91,1.93,13.72,5.8,3.82,3.86,5.72,8.54,5.72,14.04s-1.89,10.05-5.67,13.87c-3.78,3.83-8.3,5.74-13.56,5.74s-10.02-1.95-13.84-5.85c-3.81-3.9-5.72-8.64-5.72-14.21s1.89-9.92,5.66-13.71c3.78-3.79,8.33-5.68,13.67-5.68Zm-15.21,49.93h30.42v121.25h-30.42v-121.25Z"/>
        <path class="cls-1" d="m1643.28,130.18c11.44,0,22.19,2.86,32.26,8.58,10.07,5.72,17.92,13.49,23.57,23.29,5.65,9.81,8.47,20.39,8.47,31.76s-2.84,22.14-8.53,32.1c-5.68,9.96-13.43,17.74-23.24,23.35-9.81,5.61-20.62,8.41-32.43,8.41-17.38,0-32.23-6.18-44.52-18.56-12.3-12.37-18.44-27.4-18.44-45.08,0-18.95,6.95-34.73,20.84-47.36,12.19-10.99,26.19-16.49,42.01-16.49Zm.5,28.64c-9.45,0-17.32,3.29-23.61,9.86-6.29,6.58-9.43,14.99-9.43,25.24s3.11,19.09,9.32,25.63c6.21,6.54,14.08,9.81,23.61,9.81s17.45-3.3,23.78-9.92c6.32-6.61,9.49-15.12,9.49-25.52s-3.11-18.85-9.32-25.35c-6.22-6.5-14.16-9.75-23.83-9.75Z"/>
        <path class="cls-1" d="m1795.24,150.24l-18.83,18.83c-7.65-7.58-14.6-11.37-20.84-11.37-3.42,0-6.09.72-8.02,2.17-1.93,1.45-2.9,3.25-2.9,5.4,0,1.64.61,3.14,1.84,4.51,1.23,1.38,4.25,3.25,9.08,5.63l11.14,5.57c11.74,5.8,19.8,11.7,24.18,17.72,4.38,6.02,6.58,13.08,6.58,21.17,0,10.77-3.96,19.76-11.87,26.97-7.91,7.21-18.52,10.81-31.82,10.81-17.68,0-31.8-6.91-42.35-20.73l18.72-20.39c3.57,4.16,7.75,7.52,12.54,10.08,4.79,2.56,9.04,3.85,12.76,3.85,4.01,0,7.24-.96,9.7-2.9,2.45-1.93,3.68-4.16,3.68-6.69,0-4.68-4.42-9.25-13.26-13.71l-10.25-5.13c-19.61-9.88-29.42-22.25-29.42-37.11,0-9.58,3.69-17.77,11.09-24.57,7.39-6.8,16.84-10.2,28.36-10.2,7.87,0,15.29,1.73,22.23,5.18,6.95,3.46,12.83,8.42,17.66,14.88Z"/>
      </g>
      <circle class="cls-1" cx="172.4" cy="172.4" r="172.4"/>
      <g>
        <path class="cls-2" d="m209.56,121.51l14.77,14.77-78.17,78.17-14.77-14.77,78.17-78.17Z"/>
        <path class="cls-2" d="m201.95,196.09l.49-20.32c14.56.39,26.26-3.83,35.12-12.68,7.47-7.47,11.2-16.31,11.22-26.53.02-10.22-3.73-19.06-11.23-26.56-5.2-5.2-10.97-8.71-17.27-10.48-6.3-1.78-12.68-1.75-19.12.09-6.46,1.82-12.2,5.29-17.26,10.35-4.32,4.32-7.47,9.07-9.42,14.25-1.98,5.18-2.97,12.05-3,20.59l-20.6-.43c.14-11.42,1.68-20.79,4.64-28.11,2.95-7.31,7.74-14.25,14.32-20.84,12.15-12.15,25.94-18.26,41.39-18.28,15.44-.05,29.19,5.96,41.24,18.01,7.8,7.8,12.95,16.47,15.48,26.06,2.53,9.59,2.36,19.51-.53,29.76-2.9,10.26-8.14,19.17-15.71,26.75-6.45,6.45-14.01,11.3-22.7,14.54-8.7,3.26-17.71,4.52-27.06,3.83Z"/>
        <path class="cls-2" d="m181.14,239.78l-42.67,42.67-14.55-14.55,27.9-27.9-17.38-17.38-27.9,27.9-14.29-14.29,27.9-27.9-17.32-17.32-27.9,27.9-14.61-14.61,42.67-42.67,78.17,78.17Z"/>
      </g>
    </g>
  </g>
</svg>